<?xml version="1.0" standalone="no"?>
<!DOCTYPE svg PUBLIC "-//W3C//DTD SVG 20010904//EN"
 "http://www.w3.org/TR/2001/REC-SVG-20010904/DTD/svg10.dtd">
<svg version="1.0" xmlns="http://www.w3.org/2000/svg"
 width="373.000000pt" height="308.000000pt" viewBox="0 0 373.000000 308.000000"
 preserveAspectRatio="xMidYMid meet">

<g transform="translate(0.000000,308.000000) scale(0.100000,-0.100000)"
fill="#000000" stroke="none">
<path d="M1772 3054 c-162 -23 -307 -71 -479 -158 -91 -46 -243 -148 -284
-192 l-23 -24 135 -132 c73 -73 284 -281 467 -462 l333 -330 187 185 c103 101
237 233 298 292 l111 107 285 0 c207 0 287 -3 296 -12 9 -9 12 -136 12 -509 0
-274 -3 -500 -7 -502 -5 -3 -118 103 -253 235 l-245 239 -5 97 -5 97 -112
-109 c-62 -61 -113 -115 -113 -122 0 -13 945 -949 958 -949 14 0 92 163 126
265 98 295 106 580 26 880 -120 446 -445 818 -870 998 -127 53 -211 78 -353
102 -139 23 -341 25 -485 4z"/>
<path d="M50 2743 c0 -5 126 -134 280 -288 l280 -281 -25 -61 c-39 -97 -71
-218 -90 -338 -23 -145 -16 -397 14 -530 81 -352 249 -631 514 -851 191 -160
415 -270 662 -325 116 -26 406 -37 526 -20 229 33 436 109 620 226 38 25 75
45 82 45 7 0 75 -63 152 -140 l140 -140 212 0 c118 0 213 4 213 9 0 9 -1686
1684 -1701 1689 -5 2 -9 -137 -9 -337 0 -188 -3 -341 -8 -341 -4 0 -89 82
-190 183 l-182 182 0 137 0 136 -532 526 -533 526 -212 0 c-117 0 -213 -3
-213 -7z m1078 -1074 l242 -246 0 -321 0 -322 -250 0 -250 0 0 571 c0 314 3
569 8 567 4 -1 116 -114 250 -249z"/>
</g>
</svg>
